<svg width="8" height="9" viewBox="0 0 8 9" fill="none" xmlns="http://www.w3.org/2000/svg">
<path fill-rule="evenodd" clip-rule="evenodd" d="M4.90828 3.39647C4.74951 3.3237 4.5903 3.24383 4.43371 3.15864C4.51944 3.10318 4.6008 3.05037 4.6804 2.99935L5.08192 3.27756L4.90828 3.39647ZM4.02841 4.00317L3.53242 3.65929C3.70606 3.57676 3.87096 3.48979 4.02841 3.40283C4.18718 3.48979 4.35252 3.57676 4.52791 3.65929L4.02841 4.00317ZM5.05516 5.31743L4.02862 6.03669L3.00558 5.31743L4.02862 4.61326L5.05516 5.31743ZM2.978 3.27756L3.37777 2.99935C3.45519 3.05037 3.53698 3.10318 3.62445 3.15864C3.46787 3.24383 3.31085 3.3237 3.15208 3.39647L2.978 3.27756ZM4.02834 2.54652L4.31658 2.74575C4.22648 2.80565 4.1285 2.86467 4.02834 2.9259C3.92993 2.86467 3.83327 2.80565 3.74142 2.74575L4.02834 2.54652ZM7.83044 1.49188C7.82169 1.48123 7.61263 1.26292 7.24653 1.26292C7.05627 1.26292 6.85726 1.3246 6.65913 1.4413C6.62326 1.45993 6.60227 1.50031 6.60883 1.54113C6.61102 1.55134 6.75317 2.54437 6.64426 2.97077C6.5629 3.29114 6.29479 3.66696 5.80754 3.66696C5.70301 3.66696 5.59672 3.64966 5.48344 3.61771C5.48344 3.61771 5.4795 3.61771 5.4795 3.61593L5.84734 3.36302C5.8749 3.34394 5.89152 3.31421 5.89152 3.28049C5.89152 3.24676 5.8749 3.21704 5.84734 3.19796L5.11779 2.68857C5.34785 2.51242 5.49394 2.38729 5.51275 2.37043C5.53374 2.35135 5.54817 2.3265 5.54817 2.29811C5.54817 2.27104 5.53768 2.24309 5.51712 2.22401L5.38722 2.09045C5.36841 2.07137 5.34129 2.06072 5.31855 2.06072C5.29755 2.06072 5.27437 2.06915 5.25775 2.08202C5.24944 2.08601 5.05655 2.23687 4.76394 2.44231L4.47133 2.23687L5.61772 1.4373L5.70738 1.66803C5.72225 1.70397 5.75331 1.72971 5.7953 1.73193C5.7953 1.73193 5.79704 1.73193 5.79923 1.73193C5.8351 1.73193 5.86834 1.71063 5.88496 1.67913L6.43081 0.660806C6.44962 0.626197 6.44568 0.586262 6.42469 0.553871C6.40588 0.526805 6.37483 0.511719 6.3429 0.511719C6.33896 0.511719 6.33459 0.511719 6.32847 0.511719L5.19914 0.683436C5.16153 0.687873 5.12785 0.715383 5.11779 0.753986C5.10948 0.789927 5.11954 0.829861 5.14666 0.857371L5.33079 1.0211L4.02827 1.92894L2.72924 1.0211L2.91119 0.857371C2.93831 0.829861 2.95055 0.789927 2.93831 0.753986C2.93 0.715383 2.8985 0.687873 2.8587 0.683436L1.72938 0.511719C1.72544 0.511719 1.71888 0.511719 1.71494 0.511719C1.68126 0.511719 1.64977 0.526805 1.63315 0.553871C1.61216 0.586262 1.61041 0.626197 1.62703 0.660806L2.1707 1.67913C2.1895 1.71063 2.22318 1.73193 2.25861 1.73193C2.26298 1.73193 2.26298 1.73193 2.26473 1.73193C2.30235 1.72971 2.33603 1.70397 2.3509 1.66803L2.44056 1.4373L3.58651 2.23687L3.2939 2.44231C2.9991 2.23687 2.80665 2.08601 2.80228 2.08202C2.78347 2.06915 2.76291 2.06072 2.74192 2.06072C2.71436 2.06072 2.68943 2.07137 2.67063 2.09045L2.53854 2.22401C2.51973 2.24309 2.50967 2.27104 2.50967 2.29811C2.51142 2.3265 2.5241 2.35135 2.54291 2.37043C2.56391 2.38729 2.70824 2.51242 2.94049 2.68857L2.20831 3.19796C2.18338 3.21704 2.16632 3.24676 2.16632 3.28049C2.16851 3.31421 2.18338 3.34394 2.21006 3.36302L2.57834 3.61593C2.57834 3.61771 2.57615 3.61771 2.5744 3.61771C2.46156 3.64966 2.35484 3.66696 2.25249 3.66696C1.7648 3.66696 1.49538 3.29114 1.41359 2.97077C1.30468 2.54437 1.44945 1.55134 1.44945 1.54113C1.45557 1.50031 1.43633 1.45993 1.4009 1.4413C1.20014 1.3246 1.00157 1.26292 0.813495 1.26292C0.447405 1.26292 0.236149 1.48123 0.227839 1.49188C0.211218 1.50697 0.200721 1.53004 0.200721 1.55134C0.194597 1.61301 0.083502 3.04754 0.738265 3.77256C0.981013 4.04057 1.29637 4.1759 1.67908 4.1759C1.74643 4.1759 1.81904 4.17412 1.89077 4.16347C2.26298 4.11866 2.62689 4.01882 2.97767 3.89148L3.58476 4.30724L2.2398 5.23016C2.21225 5.2519 2.19563 5.28163 2.19563 5.31535C2.19563 5.3473 2.21006 5.3788 2.2398 5.39788L3.58869 6.34432L2.43838 7.15232L2.3509 6.92603C2.33603 6.89186 2.30235 6.86657 2.26473 6.86391C2.26298 6.86214 2.26298 6.86214 2.25861 6.86214C2.22318 6.86214 2.1895 6.88299 2.1707 6.91494L1.62703 7.93548C1.61041 7.96742 1.61216 8.00958 1.63315 8.03931C1.64977 8.06682 1.68126 8.0819 1.71494 8.0819C1.71888 8.0819 1.72544 8.0819 1.72938 8.0819L2.8587 7.9124C2.8985 7.90575 2.93 7.87824 2.93831 7.8423C2.95055 7.80414 2.93831 7.76332 2.91119 7.73625L2.72486 7.56853L4.02827 6.65403L5.33298 7.56853L5.14666 7.73625C5.11779 7.76332 5.10729 7.80414 5.11779 7.8423C5.12785 7.87824 5.15934 7.90575 5.19914 7.9124L6.32847 8.0819C6.33459 8.0819 6.33896 8.0819 6.3429 8.0819C6.37483 8.0819 6.40588 8.06682 6.42469 8.03931C6.44568 8.00958 6.44787 7.96742 6.43081 7.93548L5.88496 6.91494C5.86834 6.88299 5.8351 6.86214 5.79923 6.86214C5.79704 6.86214 5.7953 6.86214 5.7953 6.86391C5.75331 6.86657 5.72225 6.89186 5.70738 6.92603L5.61772 7.15232L4.46915 6.34432L5.81804 5.39788C5.84559 5.3788 5.86222 5.3473 5.86222 5.31535C5.86222 5.28163 5.84559 5.2519 5.81804 5.23016L4.47352 4.30724L5.08192 3.89148C5.43139 4.01882 5.79704 4.11866 6.16751 4.16347C6.24055 4.17412 6.31185 4.1759 6.37877 4.1759C6.76148 4.1759 7.07945 4.04057 7.32001 3.77256C7.97653 3.04754 7.86368 1.61301 7.85756 1.55134C7.85537 1.53004 7.84488 1.50697 7.83044 1.49188Z" fill="#8393B4"/>
</svg>
