<svg width="202" height="202" viewBox="0 0 202 202" fill="none" xmlns="http://www.w3.org/2000/svg">
<path d="M100.833 78.4489C99.6491 78.4489 98.71 77.5097 98.71 76.3254V2.12357C98.71 0.939281 99.6491 0 100.833 0C102.018 0 102.957 0.939281 102.957 2.12357V76.3254C102.957 77.5097 102.018 78.4489 100.833 78.4489Z" fill="#E1E6FB"/>
<path d="M93.5241 79.5515C92.6257 79.5515 91.7681 78.9798 91.4822 78.0405L69.5934 7.14646C69.2667 6.04385 69.8791 4.85959 70.9817 4.49205C72.0843 4.16535 73.2687 4.7779 73.6363 5.88051L95.5251 76.7745C95.8518 77.8772 95.2394 79.0614 94.1368 79.429C93.9326 79.5106 93.7283 79.5515 93.5241 79.5515Z" fill="#E1E6FB"/>
<path d="M86.8674 82.7368C86.214 82.7368 85.5198 82.4101 85.1115 81.7976L43.2939 20.5004C42.6405 19.5203 42.8855 18.2135 43.8656 17.5601C44.8049 16.9067 46.1524 17.1517 46.8058 18.1318L88.6234 79.429C89.2768 80.4091 89.0317 81.7159 88.0516 82.3693C87.6841 82.6143 87.2758 82.7368 86.8674 82.7368Z" fill="#E1E6FB"/>
<path d="M81.4355 87.7597C80.9863 87.7597 80.4962 87.5963 80.1286 87.3105L22.1395 41.0416C21.2411 40.3065 21.0777 38.9588 21.8128 38.0604C22.5478 37.162 23.8954 36.9986 24.7938 37.7337L82.8241 84.0026C83.7225 84.7377 83.8859 86.0854 83.1508 86.9838C82.7016 87.5147 82.0889 87.7597 81.4355 87.7597Z" fill="#E1E6FB"/>
<path d="M77.7605 94.1713C77.5155 94.1713 77.2296 94.1304 76.9846 94.0079L7.92816 66.8917C6.82555 66.4425 6.29475 65.2174 6.74396 64.1556C7.15234 63.053 8.41823 62.5222 9.48001 62.9714L78.5364 90.0875C79.6391 90.4959 80.1699 91.7618 79.7206 92.8236C79.3939 93.6404 78.6181 94.1713 77.7605 94.1713Z" fill="#E1E6FB"/>
<path d="M76.1266 101.359C76.0858 101.359 76.0042 101.359 75.9634 101.359L1.96575 95.8048C0.78146 95.7231 -0.076298 94.7022 0.00537712 93.5179C0.0870522 92.3336 1.10798 91.4352 2.29227 91.5577L76.2899 97.1116C77.4742 97.1933 78.3319 98.2142 78.2503 99.3985C78.1277 100.501 77.2292 101.359 76.1266 101.359Z" fill="#E1E6FB"/>
<path d="M4.33399 125.249C3.35389 125.249 2.49651 124.595 2.25149 123.615C2.00646 122.472 2.70051 121.328 3.84396 121.083L76.1674 104.585C77.3108 104.299 78.4542 105.034 78.6993 106.178C78.9443 107.321 78.25 108.465 77.1065 108.71L4.7834 125.208C4.66088 125.249 4.49734 125.249 4.33399 125.249Z" fill="#E1E6FB"/>
<path d="M15.1156 152.692C14.3805 152.692 13.6863 152.324 13.2779 151.63C12.7062 150.609 13.0329 149.302 14.0538 148.73L78.2914 111.65C79.3124 111.078 80.619 111.405 81.1907 112.426C81.7625 113.447 81.4358 114.754 80.4148 115.325L16.1774 152.406C15.8507 152.61 15.4832 152.692 15.1156 152.692Z" fill="#E1E6FB"/>
<path d="M33.4926 175.765C32.9617 175.765 32.4717 175.56 32.0634 175.193C31.2058 174.417 31.1648 173.069 31.9407 172.212L82.4159 117.816C83.2326 116.959 84.5396 116.918 85.3972 117.694C86.2548 118.47 86.2955 119.817 85.5196 120.675L35.0444 175.07C34.636 175.56 34.0643 175.765 33.4926 175.765Z" fill="#E1E6FB"/>
<path d="M57.8721 192.386C57.5454 192.386 57.2594 192.304 56.9327 192.182C55.8709 191.691 55.4217 190.425 55.9526 189.364L88.1326 122.513C88.6635 121.451 89.9295 121.042 90.9504 121.533C92.0122 122.023 92.4614 123.289 91.9305 124.35L59.7505 191.201C59.4238 191.936 58.6889 192.386 57.8721 192.386Z" fill="#E1E6FB"/>
<path d="M86.0907 201.084C85.9682 201.084 85.8865 201.084 85.764 201.043C84.6205 200.88 83.8038 199.777 83.9671 198.634L95.0342 125.249C95.1975 124.105 96.3002 123.288 97.4437 123.452C98.5871 123.615 99.4039 124.718 99.2406 125.861L88.1735 199.246C88.0101 200.349 87.1117 201.084 86.0907 201.084Z" fill="#E1E6FB"/>
<path d="M115.576 201.084C114.555 201.084 113.657 200.349 113.494 199.287L102.426 125.902C102.263 124.759 103.039 123.656 104.223 123.493C105.367 123.33 106.469 124.105 106.633 125.29L117.7 198.675C117.863 199.818 117.087 200.921 115.903 201.084C115.78 201.084 115.699 201.084 115.576 201.084Z" fill="#E1E6FB"/>
<path d="M143.754 192.386C142.978 192.386 142.202 191.936 141.834 191.201L109.654 124.35C109.164 123.289 109.573 122.023 110.635 121.533C111.696 121.042 112.962 121.451 113.452 122.513L145.632 189.364C146.122 190.425 145.714 191.691 144.652 192.182C144.407 192.345 144.08 192.386 143.754 192.386Z" fill="#E1E6FB"/>
<path d="M168.134 175.765C167.562 175.765 166.99 175.52 166.582 175.071L116.106 120.675C115.331 119.817 115.372 118.47 116.229 117.694C117.087 116.877 118.434 116.959 119.21 117.816L169.686 172.212C170.462 173.07 170.421 174.417 169.563 175.193C169.195 175.601 168.665 175.765 168.134 175.765Z" fill="#E1E6FB"/>
<path d="M186.551 152.692C186.184 152.692 185.817 152.61 185.49 152.406L121.252 115.325C120.231 114.754 119.905 113.447 120.476 112.426C121.048 111.405 122.355 111.078 123.376 111.65L187.613 148.73C188.634 149.302 188.961 150.609 188.389 151.63C187.981 152.324 187.287 152.692 186.551 152.692Z" fill="#E1E6FB"/>
<path d="M197.332 125.249C197.169 125.249 197.006 125.249 196.842 125.208L124.519 108.71C123.376 108.465 122.681 107.321 122.927 106.178C123.172 105.034 124.315 104.299 125.458 104.585L197.782 121.083C198.925 121.328 199.619 122.472 199.374 123.615C199.17 124.595 198.272 125.249 197.332 125.249Z" fill="#E1E6FB"/>
<path d="M125.54 101.359C124.438 101.359 123.498 100.501 123.417 99.3985C123.335 98.2142 124.192 97.2341 125.377 97.1116L199.374 91.5577C200.518 91.4352 201.539 92.3336 201.661 93.5179C201.743 94.7022 200.885 95.6823 199.701 95.8048L125.703 101.359C125.622 101.359 125.581 101.359 125.54 101.359Z" fill="#E1E6FB"/>
<path d="M123.907 94.1711C123.049 94.1711 122.273 93.6811 121.947 92.8235C121.538 91.7209 122.069 90.4958 123.131 90.0874L192.187 62.9713C193.29 62.5629 194.515 63.0937 194.923 64.1555C195.332 65.2581 194.801 66.4832 193.739 66.8916L124.683 94.0078C124.397 94.1303 124.152 94.1711 123.907 94.1711Z" fill="#E1E6FB"/>
<path d="M120.19 87.7601C119.578 87.7601 118.965 87.4742 118.516 86.9434C117.781 86.0449 117.944 84.6973 118.843 83.9622L176.873 37.6933C177.771 36.9582 179.119 37.1216 179.854 38.02C180.589 38.9184 180.426 40.266 179.527 41.0011L121.497 87.2701C121.129 87.6376 120.68 87.7601 120.19 87.7601Z" fill="#E1E6FB"/>
<path d="M114.8 82.7368C114.392 82.7368 113.983 82.6143 113.616 82.3693C112.636 81.7159 112.39 80.4091 113.044 79.429L154.862 18.1318C155.515 17.1517 156.863 16.9067 157.802 17.5601C158.782 18.2135 159.027 19.5203 158.374 20.5004L116.556 81.7976C116.107 82.4101 115.453 82.7368 114.8 82.7368Z" fill="#E1E6FB"/>
<path d="M108.144 79.5517C107.94 79.5517 107.735 79.5108 107.531 79.47C106.429 79.1433 105.775 77.9182 106.143 76.8156L127.991 5.92158C128.318 4.81896 129.502 4.16555 130.645 4.53309C131.748 4.85979 132.401 6.08492 132.034 7.18753L110.186 78.0815C109.859 78.9391 109.042 79.5517 108.144 79.5517Z" fill="#E1E6FB"/>
</svg>
