<svg width="202" height="40" viewBox="0 0 202 40" fill="none" xmlns="http://www.w3.org/2000/svg">
<path d="M41.7278 34.1491C42.1564 34.1491 42.5309 34.0192 42.8513 33.7594C43.1717 33.4997 43.3492 33.175 43.3838 32.7853H44.5203C44.4987 33.1879 44.3601 33.5711 44.1047 33.9348C43.8493 34.2984 43.5072 34.5885 43.0786 34.805C42.6543 35.0215 42.2041 35.1297 41.7278 35.1297C40.771 35.1297 40.009 34.8115 39.4419 34.175C38.8791 33.5343 38.5977 32.6597 38.5977 31.5514V31.3501C38.5977 30.666 38.7232 30.0578 38.9743 29.5252C39.2254 28.9927 39.5848 28.5793 40.0523 28.2849C40.5243 27.9905 41.0806 27.8433 41.7213 27.8433C42.5093 27.8433 43.163 28.0792 43.6826 28.5511C44.2064 29.023 44.4857 29.6356 44.5203 30.389H43.3838C43.3492 29.9344 43.176 29.562 42.8643 29.272C42.5569 28.9776 42.1759 28.8304 41.7213 28.8304C41.1109 28.8304 40.6368 29.0512 40.2991 29.4928C39.9658 29.93 39.7991 30.5643 39.7991 31.3956V31.6229C39.7991 32.4325 39.9658 33.0559 40.2991 33.4932C40.6325 33.9304 41.1087 34.1491 41.7278 34.1491Z" fill="black"/>
<path d="M50.517 27.9731H51.7184V34.9998H50.517V29.8759L47.2764 34.9998H46.075V27.9731H47.2764V33.1035L50.517 27.9731Z" fill="black"/>
<path d="M56.5656 34.1491C56.9942 34.1491 57.3687 34.0192 57.6891 33.7594C58.0095 33.4997 58.187 33.175 58.2216 32.7853H59.3581C59.3365 33.1879 59.1979 33.5711 58.9425 33.9348C58.687 34.2984 58.345 34.5885 57.9164 34.805C57.4921 35.0215 57.0419 35.1297 56.5656 35.1297C55.6088 35.1297 54.8468 34.8115 54.2797 34.175C53.7169 33.5343 53.4354 32.6597 53.4354 31.5514V31.3501C53.4354 30.666 53.561 30.0578 53.8121 29.5252C54.0632 28.9927 54.4226 28.5793 54.8901 28.2849C55.362 27.9905 55.9184 27.8433 56.5591 27.8433C57.3471 27.8433 58.0008 28.0792 58.5204 28.5511C59.0442 29.023 59.3235 29.6356 59.3581 30.389H58.2216C58.187 29.9344 58.0138 29.562 57.7021 29.272C57.3947 28.9776 57.0137 28.8304 56.5591 28.8304C55.9487 28.8304 55.4746 29.0512 55.1369 29.4928C54.8035 29.93 54.6369 30.5643 54.6369 31.3956V31.6229C54.6369 32.4325 54.8035 33.0559 55.1369 33.4932C55.4703 33.9304 55.9465 34.1491 56.5656 34.1491Z" fill="black"/>
<path d="M66.0302 28.9473H63.6728V34.9998H62.4714V28.9473H60.1595V27.9731H66.0302V28.9473Z" fill="black"/>
<path d="M69.6955 35.1297C68.743 35.1297 67.968 34.818 67.3706 34.1945C66.7731 33.5668 66.4744 32.729 66.4744 31.6813V31.4605C66.4744 30.7635 66.6064 30.1422 66.8705 29.5967C67.1389 29.0468 67.5113 28.6182 67.9875 28.3108C68.4681 27.9991 68.9876 27.8433 69.5461 27.8433C70.4596 27.8433 71.1696 28.1442 71.6762 28.7459C72.1827 29.3477 72.436 30.2093 72.436 31.3306V31.8307H67.6758C67.6931 32.5234 67.8944 33.084 68.2797 33.5126C68.6694 33.9369 69.1629 34.1491 69.7604 34.1491C70.1847 34.1491 70.544 34.0625 70.8384 33.8893C71.1328 33.7161 71.3904 33.4867 71.6112 33.2009L72.3451 33.7724C71.7563 34.6773 70.8731 35.1297 69.6955 35.1297ZM69.5461 28.8304C69.0612 28.8304 68.6542 29.0079 68.3252 29.3629C67.9962 29.7136 67.7927 30.2071 67.7147 30.8436H71.2346V30.7526C71.1999 30.1422 71.0354 29.6703 70.741 29.3369C70.4466 28.9992 70.0483 28.8304 69.5461 28.8304Z" fill="black"/>
<path d="M77.9781 33.4087L80.3679 27.9731H81.8681V34.9998H80.6667V29.8889L78.3937 34.9998H77.5625L75.244 29.7785V34.9998H74.0426V27.9731H75.6012L77.9781 33.4087Z" fill="black"/>
<path d="M88.2414 34.9998C88.1721 34.8613 88.1159 34.6145 88.0726 34.2595C87.5141 34.8396 86.8473 35.1297 86.0724 35.1297C85.3797 35.1297 84.8103 34.9349 84.3644 34.5452C83.9228 34.1512 83.702 33.6534 83.702 33.0516C83.702 32.3199 83.9791 31.7527 84.5333 31.3501C85.0917 30.9431 85.8754 30.7396 86.8841 30.7396H88.0531V30.1876C88.0531 29.7677 87.9275 29.4343 87.6764 29.1875C87.4253 28.9364 87.0551 28.8109 86.5659 28.8109C86.1373 28.8109 85.778 28.9191 85.4879 29.1356C85.1978 29.3521 85.0528 29.614 85.0528 29.9214H83.8449C83.8449 29.5707 83.9683 29.233 84.215 28.9083C84.4661 28.5793 84.8038 28.3195 85.2281 28.129C85.6567 27.9385 86.1265 27.8433 86.6374 27.8433C87.447 27.8433 88.0812 28.0467 88.5401 28.4537C88.9991 28.8563 89.2372 29.4127 89.2545 30.1227V33.3568C89.2545 34.0019 89.3368 34.5149 89.5013 34.8959V34.9998H88.2414ZM86.2477 34.0841C86.6244 34.0841 86.9815 33.9867 87.3192 33.7919C87.6569 33.5971 87.9015 33.3438 88.0531 33.0321V31.5904H87.1114C85.6394 31.5904 84.9034 32.0212 84.9034 32.8827C84.9034 33.2594 85.029 33.5538 85.2801 33.7659C85.5312 33.9781 85.8537 34.0841 86.2477 34.0841Z" fill="black"/>
<path d="M100.384 34.9998H99.1827V28.9667H95.9486V34.9998H94.7407V27.9731H100.384V34.9998Z" fill="black"/>
<path d="M102.095 31.4215C102.095 30.7332 102.229 30.114 102.497 29.5642C102.77 29.0144 103.147 28.5901 103.627 28.2914C104.112 27.9926 104.664 27.8433 105.283 27.8433C106.24 27.8433 107.013 28.1745 107.602 28.8369C108.195 29.4993 108.491 30.3803 108.491 31.48V31.5644C108.491 32.2485 108.359 32.8632 108.095 33.4087C107.836 33.9499 107.461 34.372 106.972 34.6751C106.487 34.9782 105.928 35.1297 105.296 35.1297C104.344 35.1297 103.571 34.7985 102.978 34.1361C102.389 33.4737 102.095 32.597 102.095 31.506V31.4215ZM103.303 31.5644C103.303 32.3437 103.482 32.9693 103.842 33.4412C104.205 33.9131 104.69 34.1491 105.296 34.1491C105.907 34.1491 106.392 33.911 106.751 33.4347C107.11 32.9542 107.29 32.2831 107.29 31.4215C107.29 30.6509 107.106 30.0275 106.738 29.5512C106.374 29.0707 105.889 28.8304 105.283 28.8304C104.69 28.8304 104.212 29.0663 103.848 29.5382C103.484 30.0101 103.303 30.6855 103.303 31.5644Z" fill="black"/>
<path d="M114.644 27.9731H115.845V34.9998H114.644V29.8759L111.403 34.9998H110.202V27.9731H111.403V33.1035L114.644 27.9731Z" fill="black"/>
<path d="M120.693 34.1491C121.121 34.1491 121.496 34.0192 121.816 33.7594C122.136 33.4997 122.314 33.175 122.349 32.7853H123.485C123.463 33.1879 123.325 33.5711 123.069 33.9348C122.814 34.2984 122.472 34.5885 122.043 34.805C121.619 35.0215 121.169 35.1297 120.693 35.1297C119.736 35.1297 118.974 34.8115 118.407 34.175C117.844 33.5343 117.562 32.6597 117.562 31.5514V31.3501C117.562 30.666 117.688 30.0578 117.939 29.5252C118.19 28.9927 118.55 28.5793 119.017 28.2849C119.489 27.9905 120.045 27.8433 120.686 27.8433C121.474 27.8433 122.128 28.0792 122.647 28.5511C123.171 29.023 123.45 29.6356 123.485 30.389H122.349C122.314 29.9344 122.141 29.562 121.829 29.272C121.522 28.9776 121.141 28.8304 120.686 28.8304C120.076 28.8304 119.602 29.0512 119.264 29.4928C118.93 29.93 118.764 30.5643 118.764 31.3956V31.6229C118.764 32.4325 118.93 33.0559 119.264 33.4932C119.597 33.9304 120.073 34.1491 120.693 34.1491Z" fill="black"/>
<path d="M127.124 32.006H126.248V34.9998H125.04V27.9731H126.248V30.9475H127.033L129.397 27.9731H130.852L128.073 31.3501L131.086 34.9998H129.56L127.124 32.006Z" fill="black"/>
<path d="M136.556 34.9998C136.487 34.8613 136.431 34.6145 136.388 34.2595C135.829 34.8396 135.162 35.1297 134.387 35.1297C133.695 35.1297 133.125 34.9349 132.679 34.5452C132.238 34.1512 132.017 33.6534 132.017 33.0516C132.017 32.3199 132.294 31.7527 132.848 31.3501C133.407 30.9431 134.19 30.7396 135.199 30.7396H136.368V30.1876C136.368 29.7677 136.243 29.4343 135.991 29.1875C135.74 28.9364 135.37 28.8109 134.881 28.8109C134.452 28.8109 134.093 28.9191 133.803 29.1356C133.513 29.3521 133.368 29.614 133.368 29.9214H132.16C132.16 29.5707 132.283 29.233 132.53 28.9083C132.781 28.5793 133.119 28.3195 133.543 28.129C133.972 27.9385 134.442 27.8433 134.952 27.8433C135.762 27.8433 136.396 28.0467 136.855 28.4537C137.314 28.8563 137.552 29.4127 137.57 30.1227V33.3568C137.57 34.0019 137.652 34.5149 137.816 34.8959V34.9998H136.556ZM134.563 34.0841C134.939 34.0841 135.297 33.9867 135.634 33.7919C135.972 33.5971 136.217 33.3438 136.368 33.0321V31.5904H135.426C133.954 31.5904 133.218 32.0212 133.218 32.8827C133.218 33.2594 133.344 33.5538 133.595 33.7659C133.846 33.9781 134.169 34.0841 134.563 34.0841Z" fill="black"/>
<path d="M148.173 28.9473H145.816V34.9998H144.614V28.9473H142.302V27.9731H148.173V28.9473Z" fill="black"/>
<path d="M151.838 35.1297C150.886 35.1297 150.111 34.818 149.514 34.1945C148.916 33.5668 148.617 32.729 148.617 31.6813V31.4605C148.617 30.7635 148.749 30.1422 149.013 29.5967C149.282 29.0468 149.654 28.6182 150.13 28.3108C150.611 27.9991 151.131 27.8433 151.689 27.8433C152.603 27.8433 153.313 28.1442 153.819 28.7459C154.326 29.3477 154.579 30.2093 154.579 31.3306V31.8307H149.819C149.836 32.5234 150.037 33.084 150.423 33.5126C150.812 33.9369 151.306 34.1491 151.903 34.1491C152.328 34.1491 152.687 34.0625 152.981 33.8893C153.276 33.7161 153.533 33.4867 153.754 33.2009L154.488 33.7724C153.899 34.6773 153.016 35.1297 151.838 35.1297ZM151.689 28.8304C151.204 28.8304 150.797 29.0079 150.468 29.3629C150.139 29.7136 149.936 30.2071 149.858 30.8436H153.378V30.7526C153.343 30.1422 153.178 29.6703 152.884 29.3369C152.59 28.9992 152.191 28.8304 151.689 28.8304Z" fill="black"/>
<path d="M161.816 34.9998H160.615V31.9995H157.387V34.9998H156.179V27.9731H157.387V31.0189H160.615V27.9731H161.816V34.9998Z" fill="black"/>
<path d="M163.793 34.0192L164.208 33.5062C164.676 32.9 164.942 31.9909 165.007 30.7786L165.118 27.9731H169.644V34.0192H170.547V37.0649H169.345V34.9998H164.442V37.0649H163.241L163.247 34.0192H163.793ZM165.215 34.0192H168.443V29.0836H166.28L166.209 30.7591C166.135 32.1575 165.804 33.2442 165.215 34.0192Z" fill="black"/>
<path d="M174.894 35.1297C173.941 35.1297 173.166 34.818 172.569 34.1945C171.972 33.5668 171.673 32.729 171.673 31.6813V31.4605C171.673 30.7635 171.805 30.1422 172.069 29.5967C172.337 29.0468 172.71 28.6182 173.186 28.3108C173.666 27.9991 174.186 27.8433 174.745 27.8433C175.658 27.8433 176.368 28.1442 176.875 28.7459C177.381 29.3477 177.634 30.2093 177.634 31.3306V31.8307H172.874C172.892 32.5234 173.093 33.084 173.478 33.5126C173.868 33.9369 174.361 34.1491 174.959 34.1491C175.383 34.1491 175.742 34.0625 176.037 33.8893C176.331 33.7161 176.589 33.4867 176.81 33.2009L177.544 33.7724C176.955 34.6773 176.071 35.1297 174.894 35.1297ZM174.745 28.8304C174.26 28.8304 173.853 29.0079 173.524 29.3629C173.195 29.7136 172.991 30.2071 172.913 30.8436H176.433V30.7526C176.398 30.1422 176.234 29.6703 175.939 29.3369C175.645 28.9992 175.247 28.8304 174.745 28.8304Z" fill="black"/>
<path d="M185.066 31.5644C185.066 32.6338 184.822 33.4953 184.332 34.1491C183.843 34.8028 183.181 35.1297 182.345 35.1297C181.492 35.1297 180.821 34.8591 180.332 34.3179V37.7014H179.131V27.9731H180.228L180.287 28.7524C180.776 28.1463 181.456 27.8433 182.326 27.8433C183.17 27.8433 183.837 28.1615 184.326 28.7979C184.82 29.4343 185.066 30.3197 185.066 31.454V31.5644ZM183.865 31.428C183.865 30.6357 183.696 30.0101 183.358 29.5512C183.021 29.0923 182.557 28.8628 181.969 28.8628C181.241 28.8628 180.696 29.1854 180.332 29.8305V33.1879C180.691 33.8287 181.241 34.1491 181.982 34.1491C182.557 34.1491 183.014 33.9218 183.352 33.4672C183.694 33.0083 183.865 32.3285 183.865 31.428Z" fill="black"/>
<path d="M186.381 31.4215C186.381 30.7332 186.515 30.114 186.783 29.5642C187.056 29.0144 187.433 28.5901 187.913 28.2914C188.398 27.9926 188.95 27.8433 189.569 27.8433C190.526 27.8433 191.299 28.1745 191.888 28.8369C192.481 29.4993 192.777 30.3803 192.777 31.48V31.5644C192.777 32.2485 192.645 32.8632 192.381 33.4087C192.122 33.9499 191.747 34.372 191.258 34.6751C190.773 34.9782 190.214 35.1297 189.582 35.1297C188.63 35.1297 187.857 34.7985 187.264 34.1361C186.675 33.4737 186.381 32.597 186.381 31.506V31.4215ZM187.589 31.5644C187.589 32.3437 187.768 32.9693 188.128 33.4412C188.491 33.9131 188.976 34.1491 189.582 34.1491C190.193 34.1491 190.678 33.911 191.037 33.4347C191.396 32.9542 191.576 32.2831 191.576 31.4215C191.576 30.6509 191.392 30.0275 191.024 29.5512C190.66 29.0707 190.175 28.8304 189.569 28.8304C188.976 28.8304 188.498 29.0663 188.134 29.5382C187.77 30.0101 187.589 30.6855 187.589 31.5644Z" fill="black"/>
<path d="M194.494 34.9998V27.9731H197.235C198.17 27.9731 198.887 28.1377 199.385 28.4667C199.887 28.7914 200.138 29.2698 200.138 29.9019C200.138 30.2266 200.04 30.521 199.846 30.7851C199.651 31.0449 199.363 31.244 198.982 31.3826C199.406 31.4821 199.746 31.677 200.002 31.967C200.261 32.2571 200.391 32.6035 200.391 33.0061C200.391 33.6512 200.153 34.1447 199.677 34.4868C199.205 34.8288 198.536 34.9998 197.67 34.9998H194.494ZM195.696 31.9151V34.0322H197.683C198.185 34.0322 198.56 33.9391 198.807 33.7529C199.058 33.5668 199.183 33.3048 199.183 32.9671C199.183 32.2658 198.668 31.9151 197.638 31.9151H195.696ZM195.696 30.954H197.248C198.374 30.954 198.936 30.6249 198.936 29.9668C198.936 29.3088 198.404 28.9689 197.339 28.9473H195.696V30.954Z" fill="black"/>
<path d="M45.0729 3.44984V17.9998H43.1829V3.44984H45.0729ZM50.5329 3.44984V5.03984H37.6929V3.44984H50.5329Z" fill="black"/>
<path d="M59.4026 3.08984C61.4826 3.08984 63.0026 3.46984 63.9626 4.22984C64.9426 4.98984 65.4426 6.11984 65.4626 7.61984C65.4826 8.91984 65.2326 9.91984 64.7126 10.6198C64.1926 11.3198 63.3326 11.6698 62.1326 11.6698H53.6426V10.1698H61.7126C62.4326 10.1698 62.9226 9.92984 63.1826 9.44984C63.4426 8.96984 63.5626 8.36984 63.5426 7.64984C63.5226 6.60984 63.1926 5.86984 62.5526 5.42984C61.9126 4.96984 60.8926 4.73984 59.4926 4.73984C58.3326 4.73984 57.4126 4.91984 56.7326 5.27984C56.0526 5.63984 55.5626 6.24984 55.2626 7.10984C54.9826 7.94984 54.8426 9.09984 54.8426 10.5598C54.8426 12.1798 55.0126 13.4398 55.3526 14.3398C55.6926 15.2198 56.2326 15.8398 56.9726 16.1998C57.7126 16.5398 58.6826 16.7098 59.8826 16.7098C60.7626 16.7098 61.6526 16.6798 62.5526 16.6198C63.4526 16.5398 64.2426 16.4498 64.9226 16.3498L65.1026 17.6398C64.7226 17.7998 64.2026 17.9298 63.5426 18.0298C62.8826 18.1298 62.2026 18.2098 61.5026 18.2698C60.8226 18.3298 60.2026 18.3598 59.6426 18.3598C58.0426 18.3598 56.7426 18.1098 55.7426 17.6098C54.7426 17.0898 54.0126 16.2698 53.5526 15.1498C53.1126 14.0098 52.8926 12.5198 52.8926 10.6798C52.8926 8.77984 53.1126 7.27984 53.5526 6.17984C53.9926 5.07984 54.6926 4.28984 55.6526 3.80984C56.6126 3.32984 57.8626 3.08984 59.4026 3.08984Z" fill="black"/>
<path d="M71.5272 3.44984V17.9998H69.6372V3.44984H71.5272ZM80.2572 9.53984V11.0098H71.3472V9.53984H80.2572ZM81.8772 3.44984V17.9998H79.9872V3.44984H81.8772Z" fill="black"/>
<path d="M98.0824 3.44984V4.97984H92.9524C91.7324 4.97984 91.0824 5.60984 91.0024 6.86984C90.9224 8.28984 90.7624 9.64984 90.5224 10.9498C90.2824 12.2498 89.9324 13.4898 89.4724 14.6698C89.0124 15.8298 88.3824 16.9398 87.5824 17.9998H85.9024C86.7024 16.8598 87.3324 15.6698 87.7924 14.4298C88.2524 13.1698 88.5924 11.8798 88.8124 10.5598C89.0324 9.23984 89.1824 7.91984 89.2624 6.59984C89.3224 5.55984 89.6324 4.77984 90.1924 4.25984C90.7524 3.71984 91.5724 3.44984 92.6524 3.44984H98.0824ZM86.7424 17.8498L86.5324 22.3198H85.2724V17.8498H86.7424ZM100.302 16.4698V17.9998H85.2724V16.4698H100.302ZM100.302 17.8498V22.3198H99.0424L98.8324 17.8498H100.302ZM98.4424 3.44984V17.9998H96.6124V3.44984H98.4424Z" fill="black"/>
<path d="M109.735 3.08984C111.815 3.08984 113.335 3.46984 114.295 4.22984C115.275 4.98984 115.775 6.11984 115.795 7.61984C115.815 8.91984 115.565 9.91984 115.045 10.6198C114.525 11.3198 113.665 11.6698 112.465 11.6698H103.975V10.1698H112.045C112.765 10.1698 113.255 9.92984 113.515 9.44984C113.775 8.96984 113.895 8.36984 113.875 7.64984C113.855 6.60984 113.525 5.86984 112.885 5.42984C112.245 4.96984 111.225 4.73984 109.825 4.73984C108.665 4.73984 107.745 4.91984 107.065 5.27984C106.385 5.63984 105.895 6.24984 105.595 7.10984C105.315 7.94984 105.175 9.09984 105.175 10.5598C105.175 12.1798 105.345 13.4398 105.685 14.3398C106.025 15.2198 106.565 15.8398 107.305 16.1998C108.045 16.5398 109.015 16.7098 110.215 16.7098C111.095 16.7098 111.985 16.6798 112.885 16.6198C113.785 16.5398 114.575 16.4498 115.255 16.3498L115.435 17.6398C115.055 17.7998 114.535 17.9298 113.875 18.0298C113.215 18.1298 112.535 18.2098 111.835 18.2698C111.155 18.3298 110.535 18.3598 109.975 18.3598C108.375 18.3598 107.075 18.1098 106.075 17.6098C105.075 17.0898 104.345 16.2698 103.885 15.1498C103.445 14.0098 103.225 12.5198 103.225 10.6798C103.225 8.77984 103.445 7.27984 103.885 6.17984C104.325 5.07984 105.025 4.28984 105.985 3.80984C106.945 3.32984 108.195 3.08984 109.735 3.08984Z" fill="black"/>
<path d="M127.739 3.08984C129.579 3.08984 130.889 3.71984 131.669 4.97984C132.449 6.23984 132.839 8.16984 132.839 10.7698C132.839 12.6298 132.649 14.1198 132.269 15.2398C131.889 16.3398 131.299 17.1398 130.499 17.6398C129.699 18.1198 128.679 18.3598 127.439 18.3598C126.459 18.3598 125.489 18.2298 124.529 17.9698C123.589 17.6898 122.649 17.2898 121.709 16.7698L121.799 15.5698C122.859 15.9098 123.779 16.1798 124.559 16.3798C125.339 16.5798 126.159 16.6798 127.019 16.6798C127.939 16.6798 128.679 16.5098 129.239 16.1698C129.799 15.8098 130.209 15.1998 130.469 14.3398C130.749 13.4798 130.889 12.2898 130.889 10.7698C130.889 9.28984 130.759 8.11984 130.499 7.25984C130.259 6.37984 129.869 5.74984 129.329 5.36984C128.809 4.96984 128.109 4.76984 127.229 4.76984C126.369 4.76984 125.519 4.97984 124.679 5.39984C123.859 5.81984 122.899 6.46984 121.799 7.34984L121.649 5.96984C122.249 5.36984 122.879 4.85984 123.539 4.43984C124.219 3.99984 124.909 3.66984 125.609 3.44984C126.329 3.20984 127.039 3.08984 127.739 3.08984ZM121.529 3.44984L121.769 6.35984L121.889 6.62984V16.2298L121.769 16.5898C121.829 17.1498 121.869 17.6698 121.889 18.1498C121.909 18.6298 121.909 19.1498 121.889 19.7098V24.1198H119.999V3.44984H121.529Z" fill="black"/>
<path d="M149.315 3.44984V17.9998H147.425V3.44984H149.315ZM139.085 3.44984V17.9998H137.225V3.44984H139.085ZM147.695 3.44984L147.665 5.00984H138.935V3.44984H147.695Z" fill="black"/>
<path d="M165.494 3.44984V4.97984H160.304C159.644 4.97984 159.164 5.12984 158.864 5.42984C158.584 5.72984 158.394 6.21984 158.294 6.89984C158.194 7.81984 158.074 8.76984 157.934 9.74984C157.814 10.7298 157.664 11.6798 157.484 12.5998C157.304 13.4998 157.054 14.3198 156.734 15.0598C156.514 15.6598 156.214 16.1798 155.834 16.6198C155.454 17.0598 155.004 17.4098 154.484 17.6698C153.964 17.9298 153.364 18.0898 152.684 18.1498L152.444 16.6798C152.964 16.4998 153.384 16.3098 153.704 16.1098C154.044 15.8898 154.314 15.6398 154.514 15.3598C154.734 15.0798 154.914 14.7798 155.054 14.4598C155.294 13.9198 155.484 13.3098 155.624 12.6298C155.784 11.9298 155.914 11.2198 156.014 10.4998C156.134 9.75984 156.224 9.05984 156.284 8.39984C156.364 7.71984 156.434 7.12984 156.494 6.62984C156.634 5.58984 156.974 4.79984 157.514 4.25984C158.054 3.71984 158.884 3.44984 160.004 3.44984H165.494ZM165.884 3.44984V17.9998H163.964V3.44984H165.884Z" fill="black"/>
<path d="M177.756 3.08984C178.756 3.08984 179.596 3.23984 180.276 3.53984C180.976 3.81984 181.506 4.28984 181.866 4.94984C182.226 5.58984 182.406 6.45984 182.406 7.55984V17.9998H180.906L180.606 14.8198L180.486 14.5498V7.55984C180.486 6.63984 180.276 5.93984 179.856 5.45984C179.436 4.97984 178.616 4.73984 177.396 4.73984C176.516 4.73984 175.496 4.77984 174.336 4.85984C173.176 4.93984 172.046 5.03984 170.946 5.15984L170.766 3.74984C171.426 3.62984 172.136 3.52984 172.896 3.44984C173.676 3.34984 174.476 3.26984 175.296 3.20984C176.116 3.12984 176.936 3.08984 177.756 3.08984ZM181.416 9.11984L181.386 10.5598L174.276 10.6198C173.516 10.6398 172.956 10.8498 172.596 11.2498C172.256 11.6298 172.086 12.1698 172.086 12.8698V14.1298C172.086 14.9498 172.296 15.5598 172.716 15.9598C173.136 16.3598 173.766 16.5598 174.606 16.5598C175.246 16.5798 175.956 16.4698 176.736 16.2298C177.516 15.9898 178.276 15.6398 179.016 15.1798C179.776 14.7198 180.446 14.1798 181.026 13.5598V15.0298C180.806 15.3298 180.466 15.6598 180.006 16.0198C179.566 16.3798 179.046 16.7298 178.446 17.0698C177.866 17.4098 177.216 17.6898 176.496 17.9098C175.796 18.1298 175.066 18.2398 174.306 18.2398C173.466 18.2398 172.726 18.0898 172.086 17.7898C171.466 17.4898 170.986 17.0498 170.646 16.4698C170.326 15.8698 170.166 15.1498 170.166 14.3098V12.6298C170.166 11.5098 170.496 10.6498 171.156 10.0498C171.836 9.42984 172.786 9.11984 174.006 9.11984H181.416Z" fill="black"/>
<path d="M189.242 3.44984V17.9998H187.352V3.44984H189.242ZM197.972 9.53984V11.0098H189.062V9.53984H197.972ZM199.592 3.44984V17.9998H197.702V3.44984H199.592Z" fill="black"/>
<path fill-rule="evenodd" clip-rule="evenodd" d="M0.328613 6.09141L6.91947 0.0126953H21.3613L27.9132 6.09141V32.3802C27.9132 32.3802 26.4984 33.6955 26.1923 33.98C25.5825 34.5469 24.9337 35.15 24.4714 35.5798C23.508 36.4754 21.0295 38.7795 21.0295 38.7795H6.8886L0.328613 32.3802V6.09141Z" fill="#AED32F"/>
<path fill-rule="evenodd" clip-rule="evenodd" d="M0.328613 6.09141L6.91947 0.0126953H21.3613L0.328613 17.8459V6.09141Z" fill="#9AA6A9"/>
<path fill-rule="evenodd" clip-rule="evenodd" d="M0.328613 6.09141L6.91947 0.0126953V38.856L0.328613 32.4427V6.09141Z" fill="#F7EF22"/>
<path fill-rule="evenodd" clip-rule="evenodd" d="M14.1188 19.2389C9.52204 14.8564 0.328613 6.09141 0.328613 6.09141L6.91947 0.0126953H14.1188L23.1026 13.6152L27.9089 32.3863C27.9089 32.3863 18.7155 23.6214 14.1188 19.2389Z" fill="#08E8E1"/>
<path fill-rule="evenodd" clip-rule="evenodd" d="M6.9777 0.373439L6.92775 0.00439453L6.83992 0.0853946L0.327637 6.09113C0.327637 6.09113 2.5249 8.17972 3.62352 9.22402C4.72215 10.2683 6.92775 12.3555 6.92775 12.3555L6.9777 0.373439Z" fill="#F24523"/>
<path fill-rule="evenodd" clip-rule="evenodd" d="M6.89988 11.5187C6.90645 7.68333 6.89844 0.0126953 6.89844 0.0126953H14.1189L16.7322 4.04986L6.89844 12.3624C6.89844 12.3624 6.8994 11.7999 6.89988 11.5187Z" fill="#D21D4E"/>
<path fill-rule="evenodd" clip-rule="evenodd" d="M0.334473 17.7387V6.10254L6.92499 12.3489L0.334473 17.7387Z" fill="#FCA71B"/>
<path fill-rule="evenodd" clip-rule="evenodd" d="M17.4307 22.3877L21.1404 38.9237L6.9126 12.3638L17.4307 22.3877Z" fill="#23ACE2"/>
<path fill-rule="evenodd" clip-rule="evenodd" d="M21.5843 0.0126953H14.1187L16.728 4.05231L21.5843 0.0126953Z" fill="#B0133E"/>
<path fill-rule="evenodd" clip-rule="evenodd" d="M21.5843 0.0126953L27.9271 6.09514L23.0662 13.6545L16.728 4.05231L21.5843 0.0126953Z" fill="#1BADA9"/>
<path fill-rule="evenodd" clip-rule="evenodd" d="M24.4726 35.5849C25.6242 34.5167 27.9274 32.3802 27.9274 32.3802L27.9035 6.09033L6.8999 38.7895H21.0177C21.0177 38.7895 23.321 36.6531 24.4726 35.5849Z" fill="#5B973A"/>
<path fill-rule="evenodd" clip-rule="evenodd" d="M23.0522 13.6365L27.9136 6.06689V27.8903V32.3957L23.0522 13.6365Z" fill="#01507A"/>
<path fill-rule="evenodd" clip-rule="evenodd" d="M23.055 13.6294L17.4253 22.3954L27.9135 32.3984L23.055 13.6294Z" fill="#178BA3"/>
<path fill-rule="evenodd" clip-rule="evenodd" d="M21.0158 38.784L14.6206 26.7665L17.4343 22.395L27.9244 32.3776L21.0158 38.784Z" fill="#10628C"/>
</svg>
