<svg width="210" height="42" viewBox="0 0 210 42" fill="none" xmlns="http://www.w3.org/2000/svg">
<path fill-rule="evenodd" clip-rule="evenodd" d="M0.351929 6.55924L7.41356 0.0129395H22.8869L29.9069 6.55924V34.8703C29.9069 34.8703 28.3909 36.2867 28.063 36.5932C27.4097 37.2036 26.7146 37.8531 26.2191 38.316C25.187 39.2805 22.5314 41.7618 22.5314 41.7618H7.38049L0.351929 34.8703V6.55924Z" fill="#AED32F"/>
<path fill-rule="evenodd" clip-rule="evenodd" d="M0.351929 6.55924L7.41356 0.0129395H22.8869L0.351929 19.2179V6.55924Z" fill="#9AA6A9"/>
<path fill-rule="evenodd" clip-rule="evenodd" d="M0.351929 6.55924L7.41356 0.0129395V41.8442L0.351929 34.9375V6.55924Z" fill="#F7EF22"/>
<path fill-rule="evenodd" clip-rule="evenodd" d="M15.1271 20.718C10.202 15.9984 0.351929 6.55924 0.351929 6.55924L7.41356 0.0129395H15.1271L24.7526 14.6618L29.9022 34.8769C29.9022 34.8769 20.0521 25.4377 15.1271 20.718Z" fill="#12DCD5"/>
<path fill-rule="evenodd" clip-rule="evenodd" d="M7.47602 0.402254L7.4225 0.00482178L7.3284 0.0920526L0.350952 6.55976C0.350952 6.55976 2.70516 8.80902 3.88226 9.93364C5.05936 11.0583 7.4225 13.306 7.4225 13.306L7.47602 0.402254Z" fill="#F24523"/>
<path fill-rule="evenodd" clip-rule="evenodd" d="M7.39242 12.4046C7.39945 8.27424 7.39087 0.0135498 7.39087 0.0135498H15.127L17.927 4.36127L7.39087 13.3133C7.39087 13.3133 7.3919 12.7075 7.39242 12.4046Z" fill="#D21D4E"/>
<path fill-rule="evenodd" clip-rule="evenodd" d="M0.358032 19.1032V6.57196L7.4193 13.2989L0.358032 19.1032Z" fill="#FCA71B"/>
<path fill-rule="evenodd" clip-rule="evenodd" d="M18.6752 24.1087L22.65 41.9167L7.40588 13.3137L18.6752 24.1087Z" fill="#23ACE2"/>
<path fill-rule="evenodd" clip-rule="evenodd" d="M23.126 0.0135498H15.1271L17.9228 4.3639L23.126 0.0135498Z" fill="#B0133E"/>
<path fill-rule="evenodd" clip-rule="evenodd" d="M23.126 0.0135498L29.9219 6.56388L24.7137 14.7047L17.9229 4.3639L23.126 0.0135498Z" fill="#1BADA9"/>
<path fill-rule="evenodd" clip-rule="evenodd" d="M26.2198 38.3189C27.4537 37.1686 29.9215 34.8678 29.9215 34.8678L29.8958 6.5556L7.39197 41.7701H22.5182C22.5182 41.7701 24.986 39.4693 26.2198 38.3189Z" fill="#5B973A"/>
<path fill-rule="evenodd" clip-rule="evenodd" d="M24.6982 14.6872L29.9069 6.53528V30.0374V34.8893L24.6982 14.6872Z" fill="#01507A"/>
<path fill-rule="evenodd" clip-rule="evenodd" d="M24.7013 14.6766L18.6696 24.1169L29.9069 34.8893L24.7013 14.6766Z" fill="#178BA3"/>
<path fill-rule="evenodd" clip-rule="evenodd" d="M22.5164 41.7677L15.6644 28.8258L18.6791 24.1181L29.9185 34.8686L22.5164 41.7677Z" fill="#10628C"/>
<path d="M55.159 14.608H49.486V28H47.533V14.608H41.891V12.996H55.159V14.608Z" fill="black"/>
<path d="M67.1143 21.459H59.6123C59.7363 23.443 60.191 24.807 60.9763 25.551C61.7617 26.295 63.0327 26.667 64.7893 26.667C66.36 26.667 68.096 26.543 69.9973 26.295L70.2143 27.628C68.9537 28.124 67.0627 28.372 64.5413 28.372C62.02 28.372 60.222 27.7727 59.1473 26.574C58.0933 25.3547 57.5663 23.3087 57.5663 20.436C57.5663 17.5427 58.083 15.5174 59.1163 14.36C60.1497 13.182 61.8753 12.593 64.2933 12.593C66.422 12.593 67.9927 12.9857 69.0053 13.771C70.018 14.5357 70.5347 15.7034 70.5553 17.274C70.5967 20.064 69.4497 21.459 67.1143 21.459ZM59.6123 19.909H66.6493C67.972 19.909 68.6127 19.041 68.5713 17.305C68.5507 16.251 68.2097 15.4864 67.5483 15.011C66.887 14.5357 65.833 14.298 64.3863 14.298C62.6297 14.298 61.4 14.7114 60.6973 15.538C59.9947 16.344 59.633 17.801 59.6123 19.909Z" fill="black"/>
<path d="M87.5172 12.996V28H85.5642V20.777H76.8222V28H74.9002V12.996H76.8222V19.227H85.5642V12.996H87.5172Z" fill="black"/>
<path d="M106.557 26.388V32.495H105.255L105.038 28H92.5445L92.3585 32.495H91.0255V26.388H92.6685C94.0532 23.8254 94.8798 20.436 95.1485 16.22C95.2725 14.0707 96.4402 12.996 98.6515 12.996H104.635V26.388H106.557ZM102.744 14.546H98.9615C97.7215 14.546 97.0498 15.197 96.9465 16.499C96.6985 20.6737 95.8718 23.97 94.4665 26.388H102.744V14.546Z" fill="black"/>
<path d="M119.336 21.459H111.834C111.958 23.443 112.413 24.807 113.198 25.551C113.983 26.295 115.254 26.667 117.011 26.667C118.582 26.667 120.318 26.543 122.219 26.295L122.436 27.628C121.175 28.124 119.284 28.372 116.763 28.372C114.242 28.372 112.444 27.7727 111.369 26.574C110.315 25.3547 109.788 23.3087 109.788 20.436C109.788 17.5427 110.305 15.5174 111.338 14.36C112.371 13.182 114.097 12.593 116.515 12.593C118.644 12.593 120.214 12.9857 121.227 13.771C122.24 14.5357 122.756 15.7034 122.777 17.274C122.818 20.064 121.671 21.459 119.336 21.459ZM111.834 19.909H118.871C120.194 19.909 120.834 19.041 120.793 17.305C120.772 16.251 120.431 15.4864 119.77 15.011C119.109 14.5357 118.055 14.298 116.608 14.298C114.851 14.298 113.622 14.7114 112.919 15.538C112.216 16.344 111.855 17.801 111.834 19.909Z" fill="black"/>
<path d="M128.734 12.996L128.92 15.476C130.842 13.554 132.909 12.593 135.12 12.593C136.98 12.593 138.323 13.2337 139.15 14.515C139.977 15.7964 140.39 17.8114 140.39 20.56C140.39 23.3914 139.946 25.4064 139.057 26.605C138.189 27.783 136.763 28.372 134.779 28.372C132.836 28.372 130.904 27.845 128.982 26.791C129.085 27.597 129.116 28.589 129.075 29.767V34.324H127.122V12.996H128.734ZM129.075 16.902V25.52C131.369 26.264 133.136 26.636 134.376 26.636C135.843 26.636 136.877 26.202 137.476 25.334C138.075 24.4454 138.375 22.8437 138.375 20.529C138.375 18.2557 138.086 16.654 137.507 15.724C136.928 14.794 135.947 14.329 134.562 14.329C133.735 14.329 132.909 14.5357 132.082 14.949C131.255 15.3417 130.253 15.9927 129.075 16.902Z" fill="black"/>
<path d="M157.384 12.996V28H155.462V14.577H146.875V28H144.953V12.996H157.384Z" fill="black"/>
<path d="M174.536 12.996V28H172.552V14.546H168.739C168.078 14.546 167.592 14.701 167.282 15.011C166.972 15.321 166.776 15.8274 166.693 16.53C166.672 16.6747 166.631 17.026 166.569 17.584C166.507 18.142 166.455 18.5347 166.414 18.762C166.393 18.9687 166.352 19.3304 166.29 19.847C166.228 20.343 166.166 20.7254 166.104 20.994C166.063 21.242 166.001 21.583 165.918 22.017C165.835 22.451 165.753 22.8127 165.67 23.102C165.608 23.3914 165.525 23.7117 165.422 24.063C165.319 24.3937 165.205 24.6934 165.081 24.962C164.337 26.9047 162.942 27.969 160.896 28.155L160.679 26.605C161.423 26.3777 161.991 26.0884 162.384 25.737C162.797 25.365 163.118 24.9 163.345 24.342C163.469 24.0527 163.593 23.722 163.717 23.35C163.841 22.978 163.944 22.575 164.027 22.141C164.11 21.6863 164.182 21.2834 164.244 20.932C164.327 20.56 164.399 20.1157 164.461 19.599C164.523 19.0617 164.564 18.6587 164.585 18.39C164.626 18.1214 164.668 17.7287 164.709 17.212C164.771 16.6747 164.812 16.3544 164.833 16.251C164.978 15.135 165.329 14.3187 165.887 13.802C166.466 13.2647 167.323 12.996 168.46 12.996H174.536Z" fill="black"/>
<path d="M179.767 14.732L179.581 13.275C182.577 12.8204 184.985 12.593 186.804 12.593C188.416 12.593 189.614 12.9547 190.4 13.678C191.206 14.3807 191.609 15.5587 191.609 17.212V28H190.059L189.811 25.365C189.067 26.109 188.095 26.7807 186.897 27.38C185.719 27.9587 184.499 28.248 183.239 28.248C181.916 28.248 180.872 27.8967 180.108 27.194C179.343 26.4914 178.961 25.489 178.961 24.187V22.451C178.961 21.2937 179.302 20.3947 179.984 19.754C180.666 19.1134 181.637 18.793 182.898 18.793H189.625V17.212C189.625 16.22 189.387 15.4864 188.912 15.011C188.457 14.5357 187.63 14.298 186.432 14.298C184.675 14.298 182.453 14.4427 179.767 14.732ZM180.945 22.699V24.001C180.945 25.675 181.823 26.512 183.58 26.512C184.489 26.5327 185.502 26.3157 186.618 25.861C187.754 25.3857 188.757 24.7554 189.625 23.97V20.374H183.208C181.699 20.436 180.945 21.211 180.945 22.699Z" fill="black"/>
<path d="M209.368 12.996V28H207.415V20.777H198.673V28H196.751V12.996H198.673V19.227H207.415V12.996H209.368Z" fill="black"/>
</svg>
